<svg id="Logo" xmlns="http://www.w3.org/2000/svg" viewBox="0 0 368.93 278.2"><defs><style>.cls-1{fill:#ffb000;}</style></defs><path class="cls-1" d="M125.67,118.35V148.8L78.47,73.86H72.21V156.7h9.32a141.56,141.56,0,0,1-8.26-47.08V82.12l47.09,74.58h6.37V73.86h-9.32C121.07,86.72,125.67,104.31,125.67,118.35Z"/><rect class="cls-1" x="136.17" y="73.86" width="9.44" height="82.84"/><path class="cls-1" d="M189.74,156c-9.08,0-20.65-4.84-30.8-13.58l-5.31,7a56.63,56.63,0,0,0,30,8.61c17.46,0,32.33-8.85,32.33-24.78,0-27.38-55.23-26.67-55.23-46.85,0-9,7.32-13.22,16.76-13.22,9.09,0,20.77,4.72,29.62,13l5.19-5.9c-8.73-5.54-20.18-8.38-30.56-8.38-15.23,0-28.44,6.14-28.44,18.18,0,22.77,56.17,23.72,55.58,47.91C208.51,150.33,200.48,156,189.74,156Z"/><path class="cls-1" d="M268.57,99.5c-.79,2.88-1,6-2.64,8.51-2.06,3.14-5.91,3.95-9.41,4.29s-7.4.2-10.91,1.23a24,24,0,0,0-7.87,3.76c-3.55,2.67-5.24,3-6,2.89V73.86h-9.44V156.7h9.44V131.43a34.58,34.58,0,0,1,1.35-4.73c1.6-4.32,4.27-8.39,8.33-10.76,6.54-3.82,14.62-1.46,21.57-4.09,2-.76,4.24-2.08,5.57,1.22V156.7H278V73.86h-9.44Z"/><rect class="cls-1" x="287.45" y="73.86" width="9.44" height="82.84"/><path class="cls-1" d="M85.76,192.5a.64.64,0,0,0,0-.07,6.51,6.51,0,0,0-1.19-2.33,5.63,5.63,0,0,0-2.14-1.56A8.34,8.34,0,0,0,79.2,188a8,8,0,0,0-3.86.91,6.8,6.8,0,0,0-2.66,2.55,8,8,0,0,0,0,7.68,7,7,0,0,0,2.69,2.56,8,8,0,0,0,3.82.91,7,7,0,0,0,3.18-.66,6,6,0,0,0,2.14-1.74,7.82,7.82,0,0,0,1.21-2.37l0-.12v1c0,.6,0,1.24.08,1.93s.12,1.24.17,1.67h3.41V182.66H85.76Zm-.65,5.14a4.25,4.25,0,0,1-1.86,1.57,6.65,6.65,0,0,1-2.87.57,5.57,5.57,0,0,1-2.58-.57,4.16,4.16,0,0,1-1.73-1.56,4.38,4.38,0,0,1-.62-2.35,4.31,4.31,0,0,1,1.3-3.27,5.05,5.05,0,0,1,3.63-1.23,6.92,6.92,0,0,1,2.86.53,4.28,4.28,0,0,1,1.86,1.53,4.34,4.34,0,0,1,.66,2.44A4.29,4.29,0,0,1,85.11,197.64Z"/><path class="cls-1" d="M106.26,188.85a10.68,10.68,0,0,0-4.59-.87,11.83,11.83,0,0,0-4.72.87,7.11,7.11,0,0,0-3.14,2.52,6.86,6.86,0,0,0-1.13,4,6.65,6.65,0,0,0,1.16,3.94,7.21,7.21,0,0,0,3.21,2.49,12.24,12.24,0,0,0,4.73.86,11,11,0,0,0,4-.65,6.54,6.54,0,0,0,2.64-1.77,5,5,0,0,0,1.19-2.56h-3.54a2.89,2.89,0,0,1-1.51,1.56,6.33,6.33,0,0,1-2.91.61A6.6,6.6,0,0,1,99,199.3a4.52,4.52,0,0,1-1.8-1.38,4,4,0,0,1-.81-1.94h13.35a8.91,8.91,0,0,0-.75-4.5A5.68,5.68,0,0,0,106.26,188.85Zm-9.69,5a4,4,0,0,1,1.63-2.19,5.67,5.67,0,0,1,3.3-.88,5.57,5.57,0,0,1,3.25.83,3,3,0,0,1,1.34,2.24Z"/><path class="cls-1" d="M123.83,195.45a8.05,8.05,0,0,0-1.79-.71q-1-.28-2.1-.51c-.86-.15-1.58-.29-2.15-.42a3.58,3.58,0,0,1-1.29-.52,1.06,1.06,0,0,1-.44-.92,1.28,1.28,0,0,1,.7-1.15,4.15,4.15,0,0,1,2.09-.43,3.72,3.72,0,0,1,2.08.47,2.33,2.33,0,0,1,.9,1.51h3.24a4.34,4.34,0,0,0-2.76-4.19,8.69,8.69,0,0,0-3.46-.6,11.15,11.15,0,0,0-2.58.28,7.12,7.12,0,0,0-2.08.82,3.81,3.81,0,0,0-1.38,1.32,3.34,3.34,0,0,0-.5,1.8,3,3,0,0,0,.5,1.76,3.75,3.75,0,0,0,1.33,1.19,8.9,8.9,0,0,0,2,.74q1.09.29,2.28.48a15.72,15.72,0,0,1,1.94.37,2.71,2.71,0,0,1,1.13.52,1.15,1.15,0,0,1,.36.91,1.64,1.64,0,0,1-.22.86,1.42,1.42,0,0,1-.82.58,5.5,5.5,0,0,1-1.66.2,4.81,4.81,0,0,1-2.55-.61,2.85,2.85,0,0,1-1.28-1.56h-3.38a2.58,2.58,0,0,0,.11,1,4.77,4.77,0,0,0,.64,1.31,5.22,5.22,0,0,0,1.31,1.3,7.07,7.07,0,0,0,2.12,1,11,11,0,0,0,3.06.38,10.54,10.54,0,0,0,3.43-.49,4.79,4.79,0,0,0,2.21-1.42,3.43,3.43,0,0,0,.78-2.28,3.28,3.28,0,0,0-.47-1.82A3.49,3.49,0,0,0,123.83,195.45Z"/><rect class="cls-1" x="128.28" y="182.15" width="4.25" height="3.21"/><rect class="cls-1" x="128.56" y="188.29" width="3.66" height="13.99"/><path class="cls-1" d="M144.12,188.06a10.39,10.39,0,0,0-1.26-.08,10,10,0,0,0-4.07.76,6.08,6.08,0,0,0-2.66,2.14,5.71,5.71,0,0,0-.93,3.27,5.49,5.49,0,0,0,1,3.26,5.89,5.89,0,0,0,2.69,2,8.27,8.27,0,0,0,1.13.36,10.4,10.4,0,0,0-1.62.11,4.18,4.18,0,0,0-2,.77,2.06,2.06,0,0,0-.74,1.71,2.51,2.51,0,0,0,.23,1,2.12,2.12,0,0,0,.73.86,3.8,3.8,0,0,0,1.37.56,9.13,9.13,0,0,0,2.12.2h4.37a4.3,4.3,0,0,1,2.26.51,1.93,1.93,0,0,1,.84,1.8v.68h3.66v-1.33a4.47,4.47,0,0,0-.71-2.66,3.77,3.77,0,0,0-2-1.38,11.21,11.21,0,0,0-3.22-.41h-4.59a1.62,1.62,0,0,1-1-.24.76.76,0,0,1-.34-.66c0-.47.29-.78.86-.94a12.09,12.09,0,0,1,2.63-.3,10.71,10.71,0,0,0,4-.69,5.75,5.75,0,0,0,2.64-2,5.25,5.25,0,0,0,.93-3.14,3.71,3.71,0,0,0-.53-2,5.58,5.58,0,0,0-1.36-1.52,9.1,9.1,0,0,0-.9-.63c.55.19,1.13.38,1.79.54a10.45,10.45,0,0,0,2.91.36v-2.76l-7.07,0A11.9,11.9,0,0,0,144.12,188.06Zm2.29,4.28a3.22,3.22,0,0,1,.51,1.83,3.09,3.09,0,0,1-.51,1.79A3.17,3.17,0,0,1,145,197.1a5.22,5.22,0,0,1-2.13.4,5.29,5.29,0,0,1-2.15-.4,3,3,0,0,1-1.93-2.93,3.22,3.22,0,0,1,.51-1.83,3.28,3.28,0,0,1,1.43-1.17,5.34,5.34,0,0,1,2.14-.4,5.17,5.17,0,0,1,2.14.4A3.4,3.4,0,0,1,146.41,192.34Z"/><path class="cls-1" d="M169.25,189.36a5.18,5.18,0,0,0-1.92-1,7.94,7.94,0,0,0-2.39-.34,7.44,7.44,0,0,0-2.67.45,6.35,6.35,0,0,0-3.41,2.93,5.47,5.47,0,0,0-.42,1v-4h-3.66v14h3.66V194a3.7,3.7,0,0,1,.64-1.06A5.66,5.66,0,0,1,161,191.5a6,6,0,0,1,2.65-.56,3.92,3.92,0,0,1,2.8.83,3.48,3.48,0,0,1,.86,2.6v7.91H171v-8.56a6.67,6.67,0,0,0-.45-2.57A4.7,4.7,0,0,0,169.25,189.36Z"/><polygon class="cls-1" points="188.79 189.36 185.75 189.36 185.75 193.33 180.79 193.33 180.79 196 185.75 196 185.75 200 188.79 200 188.79 196 193.75 196 193.75 193.33 188.79 193.33 188.79 189.36"/><path class="cls-1" d="M215,195.45a8.25,8.25,0,0,0-1.79-.71q-1-.28-2.1-.51c-.86-.15-1.58-.29-2.15-.42a3.57,3.57,0,0,1-1.3-.52,1.08,1.08,0,0,1-.44-.92,1.29,1.29,0,0,1,.71-1.15,4.11,4.11,0,0,1,2.08-.43,3.73,3.73,0,0,1,2.09.47,2.33,2.33,0,0,1,.9,1.51h3.23a4.5,4.5,0,0,0-.69-2.5,4.54,4.54,0,0,0-2.06-1.69A8.74,8.74,0,0,0,210,188a11,11,0,0,0-2.57.28,7.18,7.18,0,0,0-2.09.82A4,4,0,0,0,204,190.4a3.33,3.33,0,0,0-.49,1.8A3,3,0,0,0,204,194a3.88,3.88,0,0,0,1.34,1.19,8.81,8.81,0,0,0,1.94.74q1.11.29,2.28.48a15.93,15.93,0,0,1,2,.37,2.66,2.66,0,0,1,1.12.52,1.13,1.13,0,0,1,.37.91,1.65,1.65,0,0,1-.23.86,1.43,1.43,0,0,1-.81.58,5.54,5.54,0,0,1-1.66.2,4.76,4.76,0,0,1-2.55-.61,2.8,2.8,0,0,1-1.28-1.56h-3.38a2.58,2.58,0,0,0,.11,1,4.45,4.45,0,0,0,.63,1.31,5.39,5.39,0,0,0,1.31,1.3,7.14,7.14,0,0,0,2.13,1,10.9,10.9,0,0,0,3.05.38,10.6,10.6,0,0,0,3.44-.49,4.85,4.85,0,0,0,2.21-1.42,3.42,3.42,0,0,0,.77-2.28,3.28,3.28,0,0,0-.46-1.82A3.58,3.58,0,0,0,215,195.45Z"/><polygon class="cls-1" points="225.79 184.46 222.13 184.46 222.13 188.29 218.53 188.29 218.53 191.13 222.13 191.13 222.13 202.28 225.79 202.28 225.79 191.13 229.4 191.13 229.4 188.29 225.79 188.29 225.79 184.46"/><path class="cls-1" d="M244.26,196a6.69,6.69,0,0,1-.74,1.34,6,6,0,0,1-1.79,1.62,5,5,0,0,1-2.62.66,5.72,5.72,0,0,1-2-.31,2.31,2.31,0,0,1-1.28-1.08,4.36,4.36,0,0,1-.44-2.13v-7.85h-3.66v8.47a6.59,6.59,0,0,0,.54,2.85,4.57,4.57,0,0,0,1.43,1.79,5.76,5.76,0,0,0,2,.94,9,9,0,0,0,2.26.28,6,6,0,0,0,2.54-.49,5.78,5.78,0,0,0,1.8-1.27,7.54,7.54,0,0,0,1.2-1.62,9.58,9.58,0,0,0,.69-1.59l0-.2v4.83h3.66v-14h-3.66Z"/><path class="cls-1" d="M264.62,192.49s0,0,0-.06a6.51,6.51,0,0,0-1.19-2.33,5.63,5.63,0,0,0-2.14-1.56,8.34,8.34,0,0,0-3.21-.56,8,8,0,0,0-3.86.91,6.8,6.8,0,0,0-2.66,2.55,7.4,7.4,0,0,0-1,3.86,7.27,7.27,0,0,0,1,3.82,7,7,0,0,0,2.69,2.56,8,8,0,0,0,3.82.91,7.08,7.08,0,0,0,3.18-.66,6,6,0,0,0,2.14-1.74,7.82,7.82,0,0,0,1.21-2.37l0-.12v1c0,.6,0,1.24.08,1.93s.11,1.24.17,1.67h3.41V182.66h-3.66Zm-.65,5.15a4.25,4.25,0,0,1-1.86,1.57,6.68,6.68,0,0,1-2.87.57,5.57,5.57,0,0,1-2.58-.57,4.16,4.16,0,0,1-1.73-1.56,4.38,4.38,0,0,1-.62-2.35,4.31,4.31,0,0,1,1.3-3.27,5.05,5.05,0,0,1,3.63-1.23,6.92,6.92,0,0,1,2.86.53,4.4,4.4,0,0,1,1.86,1.53,4.34,4.34,0,0,1,.66,2.44A4.29,4.29,0,0,1,264,197.64Z"/><rect class="cls-1" x="272.17" y="182.15" width="4.25" height="3.21"/><rect class="cls-1" x="272.45" y="188.29" width="3.66" height="13.99"/><path class="cls-1" d="M292.65,188.82A11.81,11.81,0,0,0,288,188a12,12,0,0,0-4.66.84,6.66,6.66,0,0,0-4.27,6.51,6.79,6.79,0,0,0,1.13,4,7,7,0,0,0,3.14,2.47,12,12,0,0,0,4.66.84,11.81,11.81,0,0,0,4.63-.84,7.11,7.11,0,0,0,3.11-2.47,6.79,6.79,0,0,0,1.13-4,6.91,6.91,0,0,0-1.13-4A7,7,0,0,0,292.65,188.82Zm-.16,8.94a4.17,4.17,0,0,1-1.84,1.52,6.37,6.37,0,0,1-2.63.53,6.54,6.54,0,0,1-2.68-.53,4.06,4.06,0,0,1-2.53-3.95,4.31,4.31,0,0,1,.69-2.48,4.39,4.39,0,0,1,1.87-1.55,6.46,6.46,0,0,1,2.65-.53,6.32,6.32,0,0,1,2.64.53,4.36,4.36,0,0,1,1.83,1.56,4.42,4.42,0,0,1,.68,2.47A4.21,4.21,0,0,1,292.49,197.76Z"/></svg>